<svg width="20" height="20" viewBox="0 0 20 20" fill="none" xmlns="http://www.w3.org/2000/svg">
  <path d="M16.6667 8.33333L14.1667 4.16667H5.83333L3.33333 8.33333V15H5V16.6667C5 17.1087 5.17559 17.5326 5.48816 17.8452C5.80072 18.1577 6.22464 18.3333 6.66667 18.3333C7.10869 18.3333 7.53262 18.1577 7.84518 17.8452C8.15774 17.5326 8.33333 17.1087 8.33333 16.6667V15H11.6667V16.6667C11.6667 17.1087 11.8423 17.5326 12.1548 17.8452C12.4674 18.1577 12.8913 18.3333 13.3333 18.3333C13.7754 18.3333 14.1993 18.1577 14.5118 17.8452C14.8244 17.5326 15 17.1087 15 16.6667V15H16.6667V8.33333Z" stroke="currentColor" stroke-width="1.5" stroke-linecap="round" stroke-linejoin="round"/>
  <path d="M6.66667 8.33333H13.3333" stroke="currentColor" stroke-width="1.5" stroke-linecap="round" stroke-linejoin="round"/>
  <path d="M5.83333 4.16667H14.1667" stroke="currentColor" stroke-width="1.5" stroke-linecap="round" stroke-linejoin="round"/>
  <circle cx="6.66667" cy="16.6667" r="0.833333" stroke="currentColor" stroke-width="1.5"/>
  <circle cx="13.3333" cy="16.6667" r="0.833333" stroke="currentColor" stroke-width="1.5"/>
</svg> 